<?xml version="1.0" standalone="no"?>
<!DOCTYPE svg PUBLIC "-//W3C//DTD SVG 20010904//EN"
 "http://www.w3.org/TR/2001/REC-SVG-20010904/DTD/svg10.dtd">
<svg version="1.0" xmlns="http://www.w3.org/2000/svg"
 width="417.000000pt" height="417.000000pt" viewBox="0 0 417.000000 417.000000"
 preserveAspectRatio="xMidYMid meet">
<metadata>
Created by potrace 1.11, written by Peter Selinger 2001-2013
</metadata>
<g transform="translate(0.000000,417.000000) scale(0.100000,-0.100000)"
fill="#000000" stroke="none">
<path d="M1958 4126 c-1 -2 -33 -6 -70 -10 -36 -3 -72 -8 -80 -11 -7 -2 -29
-6 -48 -9 -19 -3 -69 -15 -110 -26 -379 -105 -706 -343 -924 -674 -101 -154
-207 -405 -231 -547 -4 -24 -9 -53 -12 -64 -14 -65 -18 -140 -17 -305 0 -151
4 -205 23 -294 44 -215 142 -459 286 -710 25 -44 45 -83 45 -88 0 -4 3 -8 8
-8 4 0 16 -17 27 -37 20 -38 193 -293 205 -303 3 -3 19 -23 35 -45 54 -73 200
-247 285 -340 127 -138 362 -366 500 -485 29 -25 58 -50 64 -55 55 -50 146
-114 151 -106 3 6 34 31 68 57 61 46 158 130 267 229 88 81 352 348 400 405
25 29 52 60 61 69 9 9 37 43 64 76 26 33 51 62 55 65 3 3 26 32 50 65 24 33
48 65 52 70 52 64 239 345 259 388 5 12 25 49 44 82 54 93 182 363 190 399 1
6 5 19 8 29 4 9 10 25 14 35 3 9 7 22 8 27 2 6 13 46 24 90 12 44 24 103 27
130 4 28 10 72 14 98 10 68 5 329 -9 412 -28 164 -55 256 -126 425 -90 213
-261 439 -451 596 -228 189 -489 304 -814 360 -38 6 -336 15 -342 10z"/>
</g>
</svg>
